HIERARCHY
ROOT Hips
{
	OFFSET	0.00	0.00	0.00
	CHANNELS 6 Xposition Yposition Zposition Zrotation Xrotation Yrotation
	JOINT Spine
	{
		OFFSET	 0.00	0.01	 0.00
		CHANNELS 3 Zrotation Xrotation Yrotation
		JOINT Spine1
		{
			OFFSET	 0.00	 2.45913012437421	 0.00
			CHANNELS 3 Zrotation Xrotation Yrotation
            JOINT Neck
            {
                OFFSET	 0.00	 2.48462964506057	 0.00
                CHANNELS 3 Zrotation Xrotation Yrotation
                JOINT Head
                {
                    OFFSET	 0.00	 0.927524780924562	 0.00
                    CHANNELS 3 Zrotation Xrotation Yrotation
                    End Site 
                    {
                        OFFSET	 0.00	 1.14999962169752	 0.00
                    }
                }
            }
			JOINT LeftShoulder
			{
				OFFSET	 0.00	 2.48462964506057	 0.00
				CHANNELS 3 Zrotation Xrotation Yrotation
				JOINT LeftUpArm
				{
					OFFSET	 0.00	 1.24881979654096	 0.00
					CHANNELS 3 Zrotation Xrotation Yrotation
					JOINT LeftForeArm
					{
						OFFSET	 0.00	2.59758046908119	 0.00
						CHANNELS 3 Zrotation Xrotation Yrotation
						JOINT LeftHand
						{
							OFFSET	 0.00	2.45542024364365	 0.00
							CHANNELS 3 Zrotation Xrotation Yrotation
							JOINT LeftHandThumb 
							{
								OFFSET	 0.00	0.00	 0.00
								CHANNELS 3 Zrotation Xrotation Yrotation
								End Site
								{
									OFFSET	 0.00	0.00	1.00000003353624
								}
							}
							JOINT L_Wrist_End 
							{
								OFFSET	 0.00	0.99999967115358	 0.00
								CHANNELS 3 Zrotation Xrotation Yrotation
								End Site 
								{
									OFFSET	 0.00	 0.00	 0.00
								}
							}
						}
					}
				}
			}
			JOINT RightShoulder
			{
				OFFSET	 0.00	 2.48462964506057	 0.00
				CHANNELS 3 Zrotation Xrotation Yrotation
				JOINT RightUpArm
				{
					OFFSET	 0.00	 1.24881979654096	 0.00
					CHANNELS 3 Zrotation Xrotation Yrotation
					JOINT RightForeArm
					{
						OFFSET	 0.00	2.59758046908119	 0.00
						CHANNELS 3 Zrotation Xrotation Yrotation
						JOINT RightHand
						{
							OFFSET	 0.00	2.45542024364365	 0.00
							CHANNELS 3 Zrotation Xrotation Yrotation
							JOINT RightHandThumb 
							{
								OFFSET	 0.00	0.00	 0.00
								CHANNELS 3 Zrotation Xrotation Yrotation
								End Site
								{
									OFFSET	 0.00	0.00	1.00000003353624
								}
							}
							JOINT R_Wrist_End 
							{
								OFFSET	 0.00	0.99999967115358	 0.00
								CHANNELS 3 Zrotation Xrotation Yrotation
								End Site 
								{
									OFFSET	 0.00	 0.00	 0.00
								}
							}
						}
					}
				}
			}
		}
	}
	JOINT LeftUpLeg
	{
		OFFSET	 1.2719394002717	 0.00	 0.00
		CHANNELS 3 Zrotation Xrotation Yrotation
		JOINT LeftLowLeg
		{
			OFFSET	 0.00	-4.3429100912261	 0.00
			CHANNELS 3 Zrotation Xrotation Yrotation
			JOINT LeftFoot
			{
				OFFSET	 0.00	-4.48767017425826	 0.00
				CHANNELS 3 Zrotation Xrotation Yrotation
				JOINT LeftToeBase
                {
                    OFFSET	 0.00	0.00	 1.51507020887566
                    CHANNELS 3 Zrotation Xrotation Yrotation
                    End Site 
                    {
                        OFFSET	 0.00	0.00	 0.75000010571191
                    }
                }
			}
		}
	}
	JOINT RightUpLeg
	{
		OFFSET	 -1.2719393604653	 0.00	 0.00
		CHANNELS 3 Zrotation Xrotation Yrotation
		JOINT RightLowLeg
		{
			OFFSET	 0.00	-4.3429100912261	 0.00
			CHANNELS 3 Zrotation Xrotation Yrotation
			JOINT RightFoot
			{
				OFFSET	 0.00	-4.48767017425826	 0.00
				CHANNELS 3 Zrotation Xrotation Yrotation
				JOINT RightToeBase
                {
                    OFFSET	 0.00	0.00	 1.51507020887566
                    CHANNELS 3 Zrotation Xrotation Yrotation
                    End Site 
                    {
                        OFFSET	 0.00	0.00	 0.749999965609858
                    }
                }   
			}
		}
	}
}
MOTION 
Frames:	18 
Frame Time: 0.02 
 0.09860309600830078 13.3002001953125 9.283820190429687 73.4107 86.5339 -78.4424 2.31667 -17.6268 0.396712 -7.10352 20.9382 3.47342 16.7462 51.9927 347.79 6.8852 -85.55 721.472 -117.071 -2.49882 367.614 -43.6442 9.06325 27.2705 0.0 21.8301 0.0 13.9003 -15.6652 -7.12832 0.0 0.0 0.0 0.0 0.0 0.0 121.6091 -3.43064 -366.075 46.0507 6.39258 -372.35 0.0 21.2198 0.0 2.06634 -8.73427 12.9443 0.0 0.0 0.0 0.0 0.0 0.0 -4.40726 -1.74489 -12.7313 0.0 18.5333 0.0 -21.3105 -9.955299 10.6093 0.0 -15.49102 0.0 1.70909 -2.13623 13.372 0.0 22.7221 0.0 30.6867 -15.919701 -7.48137 0.0 -16.54051 0.0 
  0.09989709854125976 13.304200439453124 9.284710083007813 70.8904 86.5617 -75.9869 2.39475 -17.4688 0.462186 -7.11804 20.9749 3.47613 16.8469 51.9876 347.706 7.50557 -85.6096 722.043 -117.1199 -2.47901 367.668 -43.5704 9.11058 27.2351 0.0 21.8416 0.0 13.9284 -15.6467 -7.18686 0.0 0.0 0.0 0.0 0.0 0.0 121.6457 -3.3867 -366.106 46.0029 6.42524 -372.348 0.0 21.1999 0.0 2.0474 -8.6598 13.0049 0.0 0.0 0.0 0.0 0.0 0.0 -4.35415 -1.6339 -12.6577 0.0 18.5521 0.0 -21.3353 -9.9671 10.5963 0.0 -15.540217 0.0 1.67335 -1.9847 12.9365 0.0 22.5639 0.0 30.7642 -15.652399 -7.1072 0.0 -16.64888 0.0 
  0.10102100372314453 13.306500244140626 9.28468994140625 70.5852 86.5529 -75.7043 2.38173 -17.4853 0.460241 -7.13725 21.083 3.50554 16.9731 51.8727 347.587 8.29075 -85.5741 722.77 -117.1104 -2.46606 367.66 -43.5741 9.12273 27.2183 0.0 21.867 0.0 13.9664 -15.6277 -7.22653 0.0 0.0 0.0 0.0 0.0 0.0 121.6233 -3.33076 -366.123 46.0183 6.43666 -372.347 0.0 21.2407 0.0 2.04347 -8.68287 13.0279 0.0 0.0 0.0 0.0 0.0 0.0 -4.3714 -1.63861 -12.6642 0.0 18.5762 0.0 -21.3207 -9.9701 10.6335 0.0 -15.548333 0.0 1.67478 -1.98541 13.006 0.0 22.5723 0.0 30.6546 -15.6654 -7.2167 0.0 -16.6424 0.0 
  0.10411199569702148 13.3127001953125 9.28333984375 67.2578 86.4977 -72.1839 2.32728 -17.1929 0.331569 -7.11498 21.0601 3.38073 17.0939 51.7965 347.469 8.86422 -85.5495 723.299 -117.1012 -2.45549 367.536 -43.6153 9.03712 27.271 0.0 21.8828 0.0 13.9941 -15.6518 -7.32136 0.0 0.0 0.0 0.0 0.0 0.0 121.594696 -3.2991 -366.208 46.0168 6.5069 -372.362 0.0 21.2494 0.0 2.02211 -8.59415 13.132 0.0 0.0 0.0 0.0 0.0 0.0 -4.41994 -1.57303 -12.9301 0.0 18.7675 0.0 -21.2828 -10.0214 10.7032 0.0 -15.542782 0.0 1.74517 -1.85828 13.2726 0.0 22.7699 0.0 30.5398 -15.868099 -7.60285 0.0 -16.63113 0.0 
  0.1056980037689209 13.315699462890626 9.283140258789063 67.0421 86.5016 -71.981 2.3541 -17.1959 0.359221 -7.18089 21.1476 3.38395 17.3022 51.7261 347.289 9.96083 -85.5163 724.38 -117.0669 -2.51575 367.701 -43.603 9.26893 27.1767 0.0 21.8768 0.0 13.9576 -15.7238 -7.51583 0.0 0.0 0.0 0.0 0.0 0.0 121.6134 -3.33521 -366.326 45.9992 6.67851 -372.356 0.0 21.2703 0.0 2.03819 -8.58174 13.2167 0.0 0.0 0.0 0.0 0.0 0.0 -4.43879 -1.62118 -12.9762 0.0 18.8565 0.0 -21.2877 -10.0555 10.7458 0.0 -15.512085 0.0 1.70969 -1.90823 13.0229 0.0 22.8202 0.0 30.7422 -15.7834 -7.28894 0.0 -16.54603 0.0 
  0.10654000282287597 13.316300048828126 9.283629760742187 68.0248 86.5295 -73.0822 2.4155 -17.3136 0.447391 -7.25676 21.2335 3.43369 17.4443 51.7472 347.18 10.6324 -85.5035 725.013 -117.030396 -2.42106 367.631 -43.6341 9.13097 27.0735 0.0 21.9351 0.0 13.7846 -15.6323 -6.60029 0.0 0.0 0.0 0.0 0.0 0.0 121.6332 -3.31944 -366.35 45.993 6.71565 -372.399 0.0 21.2988 0.0 2.01873 -8.64287 13.2985 0.0 0.0 0.0 0.0 0.0 0.0 -4.43658 -1.68283 -12.8753 0.0 18.8623 0.0 -21.3464 -10.071699 10.7375 0.0 -15.469192 0.0 1.68902 -2.00112 12.9852 0.0 22.8179 0.0 30.687 -15.6845 -7.20117 0.0 -16.56234 0.0 
  0.10832300186157226 13.318900146484374 9.283060302734375 67.162 86.4894 -72.2503 2.39256 -17.2814 0.432787 -7.28353 21.3232 3.44553 17.5662 51.7324 347.079 11.0944 -85.4465 725.417 -117.0181 -2.48525 367.726 -43.6299 9.32548 27.0094 0.0 21.9092 0.0 13.8152 -15.8342 -7.68688 0.0 0.0 0.0 0.0 0.0 0.0 121.6219 -3.34427 -366.414 45.9809 6.8286 -372.436 0.0 21.3577 0.0 1.98962 -8.67824 13.3077 0.0 0.0 0.0 0.0 0.0 0.0 -4.47448 -1.66245 -12.8478 0.0 18.9166 0.0 -21.3185 -10.067101 10.7552 0.0 -15.515441 0.0 1.70623 -2.001 13.244 0.0 22.9329 0.0 30.6278 -15.793301 -7.39361 0.0 -16.66053 0.0 
  0.11062999725341797 13.321700439453124 9.2827099609375 66.6886 86.4725 -71.8687 2.39982 -17.3152 0.443495 -7.33305 21.4276 3.4593 17.7644 51.8514 346.937 11.6087 -85.3709 725.833 -116.9853 -2.44113 367.73 -43.654 9.30976 26.959 0.0 21.9085 0.0 13.9046 -15.7909 -7.7989 0.0 0.0 0.0 0.0 0.0 0.0 121.611496 -3.32659 -366.483 45.9833 6.914 -372.459 0.0 21.3999 0.0 1.92334 -8.69854 13.3516 0.0 0.0 0.0 0.0 0.0 0.0 -4.51493 -1.69072 -12.8324 0.0 19.0238 0.0 -21.2925 -10.106501 10.8249 0.0 -15.487091 0.0 1.70085 -2.02469 13.4272 0.0 23.0045 0.0 30.6773 -15.8214 -7.39117 0.0 -16.60615 0.0 
  0.11233599662780762 13.322900390625 9.283140258789063 66.7154 86.4821 -72.1247 2.46892 -17.3521 0.552134 -7.37446 21.4667 3.52602 17.9287 51.9851 346.784 11.6018 -85.3553 725.829 -117.0217 -2.43037 367.71 -43.6 9.27496 26.9202 0.0 21.9552 0.0 13.8464 -15.8363 -7.82736 0.0 0.0 0.0 0.0 0.0 0.0 121.599 -3.28103 -366.37 46.0236 6.77049 -372.369 0.0 21.4186 0.0 1.89889 -8.52411 13.1555 0.0 0.0 0.0 0.0 0.0 0.0 -4.52082 -1.68307 -12.6613 0.0 19.021 0.0 -21.2773 -10.132299 10.8929 0.0 -15.501967 0.0 1.65974 -2.06202 13.4646 0.0 22.9768 0.0 30.6799 -15.6963005 -7.20866 0.0 -16.69295 0.0 
  0.1145199966430664 13.323399658203124 9.283309936523438 66.6552 86.4829 -72.2246 2.49799 -17.4015 0.58722 -7.38327 21.5238 3.55765 18.0146 52.0977 346.718 11.3886 -85.2731 725.622 -117.0165 -2.43968 367.672 -43.6252 9.25159 26.8976 0.0 21.9897 0.0 13.6748 -15.7937 -7.254 0.0 0.0 0.0 0.0 0.0 0.0 121.6001 -3.3053 -366.344 46.0112 6.7832 -372.336 0.0 21.4298 0.0 1.89973 -8.4888 13.1342 0.0 0.0 0.0 0.0 0.0 0.0 -4.54371 -1.69492 -12.5583 0.0 19.0715 0.0 -21.2751 -10.165001 10.9463 0.0 -15.556313 0.0 1.65096 -2.05977 13.7563 0.0 22.952 0.0 30.6828 -15.6992 -7.23272 0.0 -16.74222 0.0 
  0.117608003616333 13.32300048828125 9.283709716796874 67.0405 86.5005 -72.7903 2.54608 -17.4678 0.624455 -7.37825 21.5542 3.57478 18.0344 52.2308 346.719 11.0188 -85.2156 725.231 -117.0096 -2.46405 367.574 -43.6796 9.17106 26.9012 0.0 22.0173 0.0 13.6569 -15.8572 -7.33831 0.0 0.0 0.0 0.0 0.0 0.0 121.58 -3.293 -366.288 46.0064 6.72499 -372.329 0.0 21.4348 0.0 1.86363 -8.62662 13.077 0.0 0.0 0.0 0.0 0.0 0.0 -4.55607 -1.7222 -12.3961 0.0 19.0965 0.0 -21.2535 -10.1875 10.9731 0.0 -15.520565 0.0 1.59812 -2.0758 13.828 0.0 22.8823 0.0 30.7378 -15.6007 -7.03932 0.0 -16.73401 0.0 
  0.12293600082397461 13.326500244140625 9.283599853515625 65.3926 86.5378 -71.1854 2.62294 -17.3144 0.598496 -7.3483 21.455 3.44806 18.4049 52.327 346.295 10.6822 -85.1364 724.993 -116.9954 -2.41999 367.347 -43.7712 8.88948 26.889 0.0 22.0746 0.0 13.6379 -15.9561 -7.34178 0.0 0.0 0.0 0.0 0.0 0.0 121.6079 -3.30967 -366.311 45.9243 6.75299 -372.351 0.0 21.4085 0.0 1.86775 -8.62087 13.1768 0.0 0.0 0.0 0.0 0.0 0.0 -4.54863 -1.74908 -12.4206 0.0 19.2886 0.0 -21.1968 -10.2628 11.0251 0.0 -15.538808 0.0 1.58024 -1.98353 13.7523 0.0 22.7957 0.0 30.822 -15.473101 -6.84301 0.0 -16.78601 0.0 
  0.12794500350952148 13.325699462890626 9.283729858398438 66.7102 86.5761 -72.6516 2.64223 -17.3727 0.559376 -7.29621 21.3607 3.38426 18.3952 52.5056 346.324 10.0981 -85.0886 724.393 -116.9802 -2.49315 367.239 -43.8571 8.70641 26.7335 0.0 22.1889 0.0 13.7314 -16.1435 -7.79388 0.0 0.0 0.0 0.0 0.0 0.0 121.5576 -3.28576 -366.286 45.9097 6.67348 -372.404 0.0 21.4057 0.0 1.83749 -8.57868 13.1082 0.0 0.0 0.0 0.0 0.0 0.0 -4.5915 -1.86926 -12.387 0.0 19.3971 0.0 -21.181 -10.336201 11.1138 0.0 -15.545881 0.0 1.56828 -2.08446 14.1196 0.0 22.8316 0.0 30.8597 -15.501801 -6.87231 0.0 -16.953331 0.0 
  0.13449399948120117 13.325699462890626 9.285289916992188 69.3237 86.6666 -75.6929 2.79687 -17.5216 0.695042 -7.29099 21.3479 3.42233 18.1855 52.6243 346.585 9.79559 -85.1059 723.981 -116.9782 -2.52216 367.161 -43.9126 8.53261 26.6348 0.0 22.2795 0.0 13.8342 -16.0657 -8.28907 0.0 0.0 0.0 0.0 0.0 0.0 121.5287 -3.31951 -366.239 45.8735 6.71306 -372.418 0.0 21.3688 0.0 1.86001 -8.56722 12.8335 0.0 0.0 0.0 0.0 0.0 0.0 -4.59936 -2.01374 -12.1175 0.0 19.412 0.0 -21.2 -10.4202 11.2286 0.0 -15.570587 0.0 1.39345 -2.22379 13.7032 0.0 22.5409 0.0 31.0262 -15.0401 -6.06868 0.0 -17.0084 0.0 
  0.14413900375366212 13.32989990234375 9.284869995117187 69.84 86.7754 -76.3014 2.88851 -17.3916 0.604755 -7.19585 21.1412 3.20456 18.0853 52.7614 346.711 9.50116 -85.1663 723.682 -116.9874 -2.67709 367.251 -43.9381 8.49502 26.5088 0.0 22.486 0.0 13.7779 -16.0309 -7.25764 0.0 0.0 0.0 0.0 0.0 0.0 121.5081 -3.29049 -366.232 45.787 6.67682 -372.432 0.0 21.3791 0.0 1.91926 -8.63902 12.7584 0.0 0.0 0.0 0.0 0.0 0.0 -4.62614 -2.22524 -12.3271 0.0 19.7147 0.0 -21.1491 -10.607 11.4517 0.0 -15.614093 0.0 1.39383 -2.32925 13.7252 0.0 22.5555 0.0 31.0385 -14.8962 -5.91117 0.0 -17.10474 0.0 
  0.15160900115966797 13.3272998046875 9.2860302734375 71.1896 86.8334 -78.2046 2.96938 -17.4648 0.670316 -7.09525 21.1511 3.26547 18.0339 52.7415 346.739 9.26617 -85.2096 723.497 -116.9409 -2.6763 366.851 -44.1038 7.9287 26.51 0.0 22.7386 0.0 13.9544 -15.8945 -7.27949 0.0 0.0 0.0 0.0 0.0 0.0 121.4421 -3.30711 -366.281 45.7146 6.77625 -372.507 0.0 21.358 0.0 1.80665 -8.49383 12.5232 0.0 0.0 0.0 0.0 0.0 0.0 -4.62106 -2.25234 -11.8584 0.0 19.7086 0.0 -21.1626 -10.6824 11.477 0.0 -15.591107 0.0 1.35586 -2.49662 14.0495 0.0 22.5775 0.0 31.0573 -14.708599 -5.69097 0.0 -17.19064 0.0 
  0.16140300750732423 13.326400146484374 9.285269775390624 70.6055 86.8245 -77.9867 2.87044 -17.3175 0.509812 -6.83786 21.0287 3.22864 17.9072 52.7323 346.819 8.55892 -85.2714 722.762 -117.0005 -2.76923 366.816 -44.1601 7.65149 26.4022 0.0 22.987 0.0 14.1202 -15.8013 -7.4811 0.0 0.0 0.0 0.0 0.0 0.0 121.343 -3.28327 -366.275 45.6155 6.7365 -372.518 0.0 21.4034 0.0 1.75032 -8.6149 12.6431 0.0 0.0 0.0 0.0 0.0 0.0 -4.70209 -2.22907 -11.634 0.0 19.7942 0.0 -21.1033 -10.783001 11.611 0.0 -15.620973 0.0 1.34163 -2.61032 14.5902 0.0 22.8254 0.0 31.2942 -14.7957 -5.59352 0.0 -17.148819 0.0 
  0.17187999725341796 13.325 9.285499877929688 71.0596 86.9086 -78.8785 2.88394 -17.3164 0.401475 -6.65704 21.0841 3.17478 17.6601 52.6953 347.113 9.00005 -85.425 723.109 -117.0057 -2.92074 366.616 -44.2243 7.35229 26.1604 0.0 23.3677 0.0 14.0836 -15.9948 -7.81891 0.0 0.0 0.0 0.0 0.0 0.0 121.3303 -3.2635 -366.329 45.4665 6.87068 -372.459 0.0 21.4305 0.0 1.72975 -8.47019 12.134 0.0 0.0 0.0 0.0 0.0 0.0 -4.71451 -2.25525 -11.4293 0.0 19.858 0.0 -21.0806 -10.9484005 11.7846 0.0 -15.573262 0.0 1.29098 -2.69482 14.6127 0.0 22.7432 0.0 31.3174 -14.551901 -5.28516 0.0 -17.18628 0.0 
